<?xml version="1.0" standalone="no"?>
<!DOCTYPE svg PUBLIC "-//W3C//DTD SVG 20010904//EN"
 "http://www.w3.org/TR/2001/REC-SVG-20010904/DTD/svg10.dtd">
<svg version="1.0" xmlns="http://www.w3.org/2000/svg"
 width="202.000000pt" height="202.000000pt" viewBox="0 0 202.000000 202.000000"
 preserveAspectRatio="xMidYMid meet">
<metadata>
Created by potrace 1.14, written by Peter Selinger 2001-2017
</metadata>
<g transform="translate(0.000000,202.000000) scale(0.100000,-0.100000)"
fill="#000000" stroke="none">
<path d="M1137 1703 c3 -7 6 -13 8 -13 2 0 5 6 8 13 3 8 -1 14 -8 14 -7 0 -11
-6 -8 -14z"/>
<path d="M753 1694 c-7 -3 -9 -12 -6 -20 3 -8 0 -14 -6 -14 -6 0 -8 -7 -5 -15
4 -9 0 -15 -10 -15 -10 0 -16 -9 -16 -25 0 -16 -6 -25 -16 -25 -8 0 -12 -5 -8
-11 3 -6 -3 -24 -15 -40 -11 -15 -21 -32 -21 -38 0 -5 -7 -11 -15 -15 -8 -3
-15 -17 -15 -31 0 -15 -4 -24 -10 -20 -5 3 -10 -1 -10 -10 0 -8 -7 -18 -16
-22 -13 -5 -13 -7 -2 -14 10 -7 9 -9 -4 -9 -11 0 -16 -6 -13 -20 3 -14 -2 -20
-14 -20 -11 0 -19 -6 -18 -12 1 -35 -4 -49 -15 -42 -7 5 -9 2 -5 -9 3 -9 0
-18 -8 -21 -9 -3 -12 -12 -9 -21 4 -10 2 -15 -7 -13 -7 2 -13 -4 -14 -12 -1
-8 -5 -14 -11 -13 -5 1 -11 -8 -11 -19 -1 -11 -8 -28 -16 -37 -7 -9 -19 -29
-25 -44 -7 -17 -17 -25 -24 -21 -7 4 -8 3 -4 -5 4 -6 2 -19 -6 -28 -11 -14
-11 -16 2 -9 9 4 8 1 -2 -7 -10 -8 -18 -19 -18 -26 0 -6 -8 -11 -17 -12 -11 0
-13 -3 -5 -6 6 -2 12 -9 12 -14 0 -6 -4 -7 -10 -4 -9 6 -14 -8 -11 -27 0 -5
-6 -8 -14 -8 -14 0 -19 -14 -18 -47 1 -7 -5 -13 -13 -13 -8 0 -14 -10 -14 -24
0 -13 -7 -26 -15 -30 -8 -3 -15 -11 -15 -17 0 -7 -8 -18 -17 -26 -11 -8 -12
-11 -3 -7 13 7 13 6 0 -12 -7 -10 -20 -24 -28 -31 -8 -7 -14 -24 -14 -38 -1
-14 -5 -28 -11 -32 -6 -4 -7 -1 -2 8 6 10 5 11 -3 4 -7 -6 -13 -23 -14 -37 -1
-15 -6 -24 -10 -22 -10 7 -27 -38 -20 -51 3 -5 -1 -5 -9 2 -12 10 -15 8 -16
-9 -1 -11 -9 -25 -17 -31 -9 -7 -17 -24 -18 -39 -1 -15 -6 -24 -10 -22 -4 3
-13 -7 -18 -21 -5 -14 -14 -24 -18 -21 -4 2 -8 -5 -8 -18 0 -16 6 -22 26 -24
52 -4 73 -2 88 11 13 9 14 9 8 0 -5 -9 0 -13 18 -13 14 0 30 8 35 18 10 16 10
16 11 -2 0 -11 3 -16 6 -13 4 3 15 2 25 -3 14 -8 21 -5 33 12 13 18 16 19 16
5 0 -13 8 -17 33 -16 27 0 29 2 12 9 -16 7 -17 9 -3 9 9 1 20 -4 23 -9 7 -12
43 -9 64 4 9 6 12 5 7 -2 -3 -6 -2 -13 3 -16 5 -4 12 -2 15 3 4 5 24 8 45 6
31 -2 38 0 34 11 -4 10 0 12 11 8 9 -3 16 -1 16 4 0 6 6 17 14 25 8 8 16 23
18 33 2 10 9 24 17 30 8 6 15 22 16 35 1 13 8 23 14 22 10 -3 12 2 15 40 1 6
7 15 15 18 8 3 16 16 18 28 2 12 10 29 18 38 8 8 13 19 10 24 -4 5 4 9 17 10
13 0 17 3 10 6 -10 4 -10 8 0 21 7 8 13 18 13 21 0 3 4 5 8 3 5 -1 6 2 3 7 -4
5 -2 12 4 16 6 4 8 11 5 16 -4 5 1 12 9 15 9 3 16 12 16 20 0 8 6 14 13 14 8
0 7 4 -3 10 -13 9 -8 14 11 12 4 -1 10 10 13 23 4 14 12 25 19 25 8 0 7 4 -3
10 -10 6 -11 10 -2 10 6 0 12 7 12 15 0 8 7 15 15 15 18 0 20 20 3 20 -7 0 -5
5 5 11 9 6 15 14 12 20 -4 5 0 9 7 9 7 0 18 11 25 25 6 14 7 23 2 19 -5 -3 -9
0 -9 5 0 15 13 14 29 -1 11 -10 13 -10 7 0 -4 7 -1 12 8 12 14 0 21 -19 17
-44 -1 -5 4 -4 11 2 11 8 14 7 15 -6 4 -48 8 -59 20 -55 9 3 13 -4 13 -21 0
-17 5 -26 16 -26 8 0 13 -4 9 -9 -3 -5 -1 -12 4 -16 6 -3 7 -13 4 -23 -6 -15
-5 -15 11 -3 9 8 16 10 15 5 -1 -5 -1 -22 0 -39 1 -22 4 -26 10 -16 7 11 12 6
19 -20 5 -19 14 -33 21 -31 7 1 11 -3 10 -10 -4 -31 2 -48 17 -48 10 0 14 -6
10 -15 -3 -9 0 -15 9 -15 9 0 12 -6 8 -17 -4 -11 -3 -14 5 -9 8 5 12 0 12 -13
0 -12 6 -21 13 -21 10 0 14 -13 14 -40 0 -22 -3 -40 -6 -41 -55 -4 -154 -2
-158 4 -3 4 -10 3 -17 -2 -7 -6 -16 -8 -20 -4 -10 10 -48 14 -42 4 6 -8 -49
-5 -64 4 -5 3 -11 -1 -13 -7 -3 -8 -6 -6 -6 5 -1 9 -5 17 -11 17 -5 0 -9 -5
-7 -11 1 -8 -20 -12 -62 -13 -52 -1 -65 -4 -70 -19 -4 -10 -11 -19 -16 -20
-10 -2 -11 -5 -14 -57 -1 -24 -4 -31 -10 -22 -6 10 -10 7 -13 -12 -5 -25 7
-46 26 -46 5 0 1 6 -10 14 -20 16 -19 16 51 6 6 -1 1 -5 -10 -10 -15 -6 -11
-8 17 -7 20 1 34 5 32 8 -2 4 3 10 12 13 8 3 13 2 10 -3 -3 -5 1 -11 9 -14 8
-4 12 -1 9 6 -3 8 4 13 16 13 11 0 20 -4 20 -9 0 -4 4 -6 9 -3 5 4 12 0 14 -6
4 -9 6 -8 6 2 1 10 13 15 37 16 26 1 32 -1 23 -8 -10 -7 -6 -8 11 -3 50 13 95
11 108 -5 11 -13 12 -13 7 0 -4 12 2 16 30 16 19 0 35 -5 35 -11 0 -5 5 -3 10
5 8 12 10 12 10 -5 0 -17 2 -17 10 -5 10 16 50 23 50 9 0 -5 5 -9 11 -9 5 0 8
4 5 8 -7 12 38 9 46 -3 5 -6 8 -6 8 2 0 6 8 10 18 8 9 -1 16 -9 14 -16 -2 -8
4 -6 17 5 16 14 21 16 21 5 0 -8 3 -10 8 -4 10 14 32 17 32 5 0 -7 6 -7 20 0
15 8 20 8 20 -2 0 -10 2 -10 9 0 11 17 12 18 37 4 18 -10 20 -8 18 11 -1 12
-3 26 -3 30 -1 5 -7 5 -13 1 -8 -5 -7 0 2 11 8 10 10 16 4 12 -7 -4 -14 3 -18
18 -4 14 -11 23 -16 20 -6 -3 -11 1 -11 9 -3 35 -5 41 -17 39 -10 -3 -17 24
-13 50 0 4 -5 7 -13 7 -16 0 -29 27 -20 42 3 5 -3 12 -14 15 -11 3 -18 11 -16
18 3 7 -2 15 -11 19 -9 3 -13 10 -10 16 3 5 1 10 -4 10 -6 0 -10 3 -10 8 3 19
-2 33 -11 27 -9 -6 -15 16 -11 39 1 5 -4 6 -12 3 -12 -4 -15 5 -19 50 -1 10
-4 10 -17 0 -12 -10 -14 -9 -8 6 3 9 2 17 -3 17 -5 0 -7 7 -4 15 4 9 0 15 -8
15 -8 0 -15 7 -16 15 -1 8 -3 22 -4 30 -1 9 -7 14 -15 11 -9 -4 -13 3 -13 19
0 13 -5 27 -12 31 -7 5 -8 2 -3 -7 5 -8 4 -10 0 -6 -5 4 -10 15 -11 23 -1 9
-5 23 -9 32 -5 14 -7 14 -16 2 -7 -12 -9 -11 -7 5 3 42 -2 57 -17 51 -11 -4
-15 2 -15 24 0 16 -4 32 -10 35 -6 4 -7 -1 -4 -12 5 -15 4 -16 -5 -3 -6 8 -11
22 -11 31 0 9 -7 20 -16 23 -8 3 -13 10 -9 15 3 5 1 12 -5 16 -6 4 -8 11 -5
16 4 5 -1 9 -9 9 -9 0 -15 3 -15 8 4 21 -2 32 -13 26 -8 -5 -7 0 2 11 9 11 10
16 2 11 -12 -7 -21 6 -26 38 -1 8 -6 19 -11 23 -4 4 -5 2 -1 -4 4 -7 2 -13 -3
-13 -6 0 -11 12 -11 26 0 20 -4 25 -16 20 -12 -5 -15 -2 -10 10 5 13 4 14 -7
6 -8 -7 -16 -10 -18 -7 -3 2 -6 -8 -7 -23 -1 -14 -7 -31 -14 -37 -8 -7 -9 -6
-3 5 5 8 4 11 0 7 -8 -7 -15 -28 -17 -54 -1 -7 -6 -11 -12 -10 -6 1 -12 -8
-14 -20 -2 -13 -8 -23 -14 -23 -5 0 -7 -7 -4 -16 3 -8 2 -12 -4 -9 -6 3 -10
-3 -10 -14 0 -12 -7 -21 -15 -21 -9 0 -15 -6 -14 -12 4 -31 -2 -48 -16 -48
-13 0 -20 -18 -16 -43 1 -4 -6 -10 -14 -13 -8 -4 -15 -15 -15 -26 0 -10 -4
-16 -10 -13 -5 3 -10 -1 -10 -9 0 -9 -9 -25 -20 -36 -11 -11 -20 -22 -20 -25
0 -3 0 -14 0 -25 0 -11 -7 -20 -15 -20 -9 0 -12 -6 -9 -15 6 -14 -6 -20 -29
-16 -5 1 -6 -3 -2 -9 3 -6 12 -8 18 -4 7 3 3 -2 -7 -10 -11 -9 -16 -16 -11
-16 4 0 1 -8 -7 -17 -9 -10 -19 -28 -22 -40 -4 -13 -13 -23 -21 -23 -7 0 -13
-6 -12 -12 1 -33 -4 -49 -13 -43 -5 3 -10 -1 -10 -9 0 -8 -8 -20 -17 -25 -17
-10 -17 -10 1 -11 20 0 13 -15 -7 -15 -7 0 -12 -12 -11 -27 0 -23 -2 -25 -15
-15 -12 9 -13 9 -7 0 4 -8 2 -13 -4 -13 -6 0 -9 -4 -6 -9 3 -5 -2 -19 -12 -31
-13 -17 -30 -22 -75 -24 -31 -1 -57 1 -57 6 0 20 2 23 18 20 14 -3 13 -1 -3
13 -11 9 -15 14 -8 10 8 -3 15 4 19 20 3 13 10 23 14 20 4 -3 11 12 15 32 5
27 9 33 16 22 7 -11 9 -10 10 6 1 11 1 23 0 28 0 4 7 7 17 7 14 0 15 2 2 10
-13 8 -12 10 3 10 10 0 16 4 13 8 -3 5 4 23 15 41 11 18 17 37 13 42 -3 5 -2
9 3 8 4 -1 15 -1 23 0 13 1 13 2 0 11 -10 6 -11 10 -2 10 6 0 12 7 12 16 0 8
5 12 10 9 6 -3 10 1 10 11 0 9 7 22 15 28 8 6 16 22 19 36 2 14 9 24 17 22 9
-2 9 1 -2 14 -8 10 -9 15 -3 11 7 -4 17 -1 23 7 9 11 9 15 -1 19 -8 4 -7 6 5
6 9 1 16 4 16 9 -1 4 0 10 1 15 3 9 7 24 9 35 1 4 6 0 11 -8 8 -12 10 -9 10
13 0 19 5 27 18 28 10 0 12 3 5 6 -7 2 -13 9 -13 14 0 5 6 8 13 7 6 -2 11 5 9
15 -2 10 3 17 12 17 10 0 13 6 10 15 -4 8 -1 15 5 15 6 0 8 7 4 17 -4 11 -3
14 5 9 12 -7 21 7 26 39 1 9 7 20 12 23 18 13 50 57 34 47 -9 -6 -7 -2 3 8 11
10 17 20 14 23 -3 3 4 15 15 26 11 11 17 26 14 34 -3 7 0 13 6 11 6 -1 15 13
20 31 5 18 13 30 18 27 6 -4 10 5 10 19 0 14 -7 29 -15 34 -9 4 -17 19 -18 31
-1 12 -10 27 -19 32 -10 6 -16 14 -13 19 3 5 -4 11 -14 15 -12 4 -18 12 -14
21 5 15 5 15 -14 8z m-233 -754 c0 -5 -5 -10 -11 -10 -5 0 -7 5 -4 10 3 6 8
10 11 10 2 0 4 -4 4 -10z m730 -384 c0 -3 -4 -8 -10 -11 -5 -3 -10 -1 -10 4 0
6 5 11 10 11 6 0 10 -2 10 -4z m-512 -81 c-3 -3 -9 2 -12 12 -6 14 -5 15 5 6
7 -7 10 -15 7 -18z m-708 -91 c0 -8 -5 -12 -10 -9 -6 4 -8 11 -5 16 9 14 15
11 15 -7z m76 -3 c-6 -9 -46 -22 -46 -15 0 3 10 9 23 14 29 11 29 11 23 1z
m136 -5 c7 4 8 2 4 -5 -9 -13 -26 -5 -25 12 0 9 2 8 6 -1 2 -6 10 -9 15 -6z
m142 3 c3 -3 -5 -5 -19 -5 -13 0 -22 3 -19 7 4 8 30 6 38 -2z m37 -12 c-10 -9
-11 -8 -5 6 3 10 9 15 12 12 3 -3 0 -11 -7 -18z m64 13 c3 -5 1 -10 -4 -10 -6
0 -11 5 -11 10 0 6 2 10 4 10 3 0 8 -4 11 -10z m-318 -6 c-3 -3 -12 -4 -19 -1
-8 3 -5 6 6 6 11 1 17 -2 13 -5z"/>
<path d="M1175 1680 c3 -5 8 -10 11 -10 2 0 4 5 4 10 0 6 -5 10 -11 10 -5 0
-7 -4 -4 -10z"/>
<path d="M1158 1669 c6 -9 8 -20 4 -24 -4 -5 -2 -5 5 -2 6 4 14 1 16 -5 3 -8
6 -8 6 -2 1 6 -9 19 -21 30 -14 12 -18 13 -10 3z"/>
<path d="M1196 1622 c-3 -5 1 -9 9 -9 8 0 12 4 9 9 -3 4 -7 8 -9 8 -2 0 -6 -4
-9 -8z"/>
<path d="M1198 1593 c7 -3 16 -2 19 1 4 3 -2 6 -13 5 -11 0 -14 -3 -6 -6z"/>
<path d="M1230 1555 c-7 -9 -10 -18 -6 -22 3 -3 6 -1 6 6 0 7 4 10 8 7 5 -3 9
1 9 9 0 19 -2 19 -17 0z"/>
<path d="M1253 1493 c0 -7 4 -13 8 -13 4 0 9 6 12 13 3 8 0 14 -7 14 -7 0 -13
-6 -13 -14z"/>
<path d="M1284 1456 c0 -12 6 -23 13 -23 7 0 13 4 13 9 0 4 -5 8 -11 8 -5 0
-8 4 -4 9 3 5 2 12 -3 15 -4 2 -8 -6 -8 -18z"/>
<path d="M1393 1453 c-1 -86 -4 -113 -13 -113 -5 0 -8 6 -6 13 1 6 1 9 -1 5
-2 -4 -11 -4 -20 -1 -11 4 -14 2 -11 -8 3 -8 11 -13 17 -11 6 1 11 -7 11 -19
0 -11 5 -17 10 -14 6 3 10 1 10 -4 0 -6 -6 -11 -12 -11 -9 0 -8 -3 2 -10 8 -5
15 -15 15 -22 1 -7 7 -12 14 -10 7 1 10 -2 7 -7 -9 -14 18 -58 32 -53 16 5 16
-15 0 -21 -10 -4 -10 -6 0 -6 6 -1 12 -8 12 -16 0 -8 6 -15 14 -15 8 0 13 -10
12 -27 -1 -16 5 -29 12 -29 6 -1 17 -2 23 -3 6 0 9 -7 6 -15 -6 -15 19 -56 34
-56 5 0 1 8 -9 18 -13 13 -17 31 -16 64 1 25 4 50 7 55 3 5 1 15 -5 23 -8 12
-9 12 -4 -2 3 -12 1 -15 -9 -11 -11 4 -12 10 -5 23 7 13 6 20 -3 23 -9 4 -9 6
1 6 7 1 11 5 8 9 -3 5 1 9 9 9 10 0 12 -4 5 -12 -7 -9 -5 -17 7 -26 11 -9 14
-10 9 -1 -4 6 -2 12 3 12 6 0 11 -9 11 -20 0 -12 7 -20 18 -20 11 0 13 -3 5
-8 -8 -5 -6 -13 7 -29 9 -12 20 -19 24 -16 5 6 10 -29 7 -49 0 -5 12 -8 29 -8
19 0 30 5 31 15 3 29 4 33 13 42 5 5 6 2 1 -6 -5 -9 -4 -12 3 -7 6 3 14 20 17
37 5 20 10 27 15 20 4 -8 9 -2 13 16 5 26 57 64 57 42 0 -5 -4 -9 -10 -9 -5 0
-10 -5 -10 -11 0 -5 4 -8 9 -5 11 7 8 -21 -4 -31 -4 -4 -5 -2 0 6 5 9 4 12 -3
8 -12 -8 -10 -32 3 -44 4 -4 5 -2 1 5 -4 6 -3 12 2 12 5 0 10 -11 10 -25 0
-14 -5 -25 -10 -25 -5 0 -6 6 -2 13 4 7 3 8 -2 4 -5 -5 -9 -21 -10 -37 -1 -22
3 -27 15 -22 13 4 12 1 -3 -17 -17 -18 -17 -21 -3 -15 22 8 22 -5 0 -23 -13
-9 -14 -13 -4 -11 8 2 16 -6 18 -17 3 -16 2 -17 -6 -5 -9 13 -11 13 -11 -2 0
-21 -3 -20 75 -24 78 -4 92 1 74 23 -12 14 -12 16 2 11 11 -4 15 1 15 17 0 13
-4 21 -8 19 -5 -3 -6 -10 -3 -15 4 -5 2 -9 -3 -9 -6 0 -9 11 -8 25 0 15 6 23
13 21 12 -5 12 19 -2 31 -4 4 -5 2 -1 -4 4 -7 3 -13 -2 -13 -6 0 -9 11 -8 25
0 14 6 23 12 21 5 -2 10 7 10 19 0 13 -4 21 -8 19 -5 -3 -6 -10 -3 -15 4 -5 2
-9 -3 -9 -6 0 -9 11 -8 24 0 13 4 22 7 20 4 -2 9 3 13 11 3 8 0 17 -6 21 -7 4
-8 3 -4 -4 4 -7 3 -12 -2 -12 -6 0 -9 11 -8 25 0 14 6 23 12 21 5 -2 10 7 10
19 0 13 -4 21 -8 19 -5 -3 -6 -10 -3 -15 4 -5 2 -9 -3 -9 -6 0 -9 11 -8 25 0
15 6 23 13 21 12 -5 12 19 -2 31 -4 4 -5 2 -1 -4 4 -7 3 -13 -2 -13 -6 0 -9
11 -8 25 0 14 6 23 12 21 5 -2 10 7 10 19 0 13 -4 21 -8 19 -5 -3 -6 -10 -3
-15 4 -5 2 -9 -3 -9 -6 0 -9 11 -8 24 0 13 4 22 7 20 4 -2 9 3 13 11 3 8 0 17
-6 21 -7 4 -8 3 -4 -4 4 -7 3 -12 -3 -12 -5 0 -8 13 -6 30 2 16 -1 32 -6 36
-5 3 -6 11 -2 17 4 8 1 7 -9 -1 -9 -7 -31 -12 -50 -10 -19 1 -39 -2 -46 -6 -7
-4 -12 -1 -12 8 0 14 -2 14 -19 -1 -11 -9 -17 -22 -14 -30 4 -9 0 -11 -13 -6
-13 5 -16 3 -11 -10 3 -9 2 -19 -4 -22 -5 -4 -7 -10 -4 -15 3 -5 0 -12 -6 -16
-7 -4 -9 -3 -5 4 3 6 2 13 -4 17 -6 4 -10 -9 -10 -32 0 -28 -3 -34 -10 -23 -9
14 -12 7 -9 -16 0 -4 -5 -11 -13 -15 -10 -7 -10 -9 2 -10 10 0 8 -3 -5 -8 -26
-10 -62 -2 -43 10 11 7 11 9 -1 9 -7 0 -11 6 -7 15 3 9 0 15 -10 15 -11 0 -14
6 -10 16 3 8 2 12 -4 9 -6 -4 -10 6 -11 22 0 25 -1 26 -9 8 -9 -21 -12 -18
-14 14 -1 20 -50 71 -67 71 -6 0 -7 -4 -4 -10 8 -13 -28 0 -37 14 -5 7 -8 7
-8 -1 0 -16 -42 -17 -56 -3 -7 7 -11 2 -11 -17z m137 -357 c0 -8 -9 -14 -19
-13 -15 1 -17 4 -9 14 14 17 28 16 28 -1z m280 -36 c0 -5 -4 -10 -10 -10 -5 0
-10 5 -10 10 0 6 5 10 10 10 6 0 10 -4 10 -10z"/>
<path d="M1428 1473 c7 -3 16 -2 19 1 4 3 -2 6 -13 5 -11 0 -14 -3 -6 -6z"/>
<path d="M1868 1473 c6 -2 18 -2 25 0 6 3 1 5 -13 5 -14 0 -19 -2 -12 -5z"/>
<path d="M1370 1441 c0 -6 4 -13 10 -16 6 -3 7 1 4 9 -7 18 -14 21 -14 7z"/>
<path d="M1315 1409 c-4 -5 -4 -13 -1 -16 3 -4 6 0 6 8 0 11 2 11 10 -1 6 -9
10 -10 10 -3 0 17 -17 25 -25 12z"/>
<path d="M1573 975 c0 -7 6 -11 14 -8 7 3 13 6 13 8 0 2 -6 5 -13 8 -8 3 -14
-1 -14 -8z"/>
<path d="M1580 942 c0 -5 9 -17 20 -27 20 -18 22 -34 5 -48 -6 -5 -4 -7 5 -5
8 3 15 16 15 31 1 15 0 25 -3 22 -8 -8 -32 16 -26 26 3 5 0 9 -5 9 -6 0 -11
-4 -11 -8z"/>
<path d="M1637 856 c-3 -8 -2 -18 4 -22 16 -9 22 2 11 21 -8 15 -10 16 -15 1z"/>
<path d="M1668 788 c5 -20 15 -17 18 6 1 7 -4 13 -11 13 -7 0 -10 -8 -7 -19z"/>
<path d="M1697 763 c-4 -3 -2 -13 3 -23 5 -10 6 -21 2 -25 -4 -5 -2 -5 4 -2 7
4 17 1 23 -7 9 -11 9 -15 -1 -19 -11 -4 -10 -6 0 -6 7 -1 10 -6 6 -13 -4 -6
-3 -8 4 -5 14 10 9 32 -12 56 -10 11 -15 24 -12 30 7 11 -8 24 -17 14z"/>
<path d="M1755 651 c-3 -6 1 -18 9 -27 15 -14 16 -14 13 5 -4 26 -13 35 -22
22z"/>
<path d="M1790 601 c0 -6 4 -13 10 -16 6 -3 7 1 4 9 -7 18 -14 21 -14 7z"/>
<path d="M1090 566 c0 -3 9 -10 20 -16 11 -6 20 -8 20 -6 0 3 -9 10 -20 16
-11 6 -20 8 -20 6z"/>
<path d="M1170 556 c0 -2 7 -7 16 -10 8 -3 12 -2 9 4 -6 10 -25 14 -25 6z"/>
<path d="M1822 527 c-8 -10 -6 -13 11 -14 12 0 16 1 9 4 -6 3 -10 9 -6 14 8
14 -2 11 -14 -4z"/>
<path d="M1847 487 c4 -6 8 -15 8 -19 0 -16 11 -15 12 2 1 10 -5 21 -13 24
-10 4 -13 2 -7 -7z"/>
<path d="M1884 442 c-9 -5 -8 -10 1 -19 11 -10 13 -9 12 7 -1 11 -1 20 -2 20
0 0 -5 -4 -11 -8z"/>
<path d="M1909 403 c0 -5 -2 -15 -4 -24 -1 -9 3 -16 9 -16 7 0 12 11 12 24 0
20 -15 34 -17 16z"/>
<path d="M996 372 c-3 -5 1 -9 9 -9 8 0 12 4 9 9 -3 4 -7 8 -9 8 -2 0 -6 -4
-9 -8z"/>
<path d="M918 363 c7 -3 16 -2 19 1 4 3 -2 6 -13 5 -11 0 -14 -3 -6 -6z"/>
<path d="M1939 343 c-13 -16 -12 -17 4 -4 16 13 21 21 13 21 -2 0 -10 -8 -17
-17z"/>
<path d="M1940 320 c-9 -6 -10 -10 -3 -10 6 0 15 5 18 10 8 12 4 12 -15 0z"/>
</g>
</svg>
